<?xml version="1.0" encoding="utf-8"?>
<!-- Generator: Adobe Illustrator 19.2.1, SVG Export Plug-In . SVG Version: 6.00 Build 0)  -->
<svg version="1.1" id="Layer_4" xmlns="http://www.w3.org/2000/svg" xmlns:xlink="http://www.w3.org/1999/xlink" x="0px" y="0px"
	 viewBox="0 0 839 200" style="enable-background:new 0 0 839 200;" xml:space="preserve">
<style type="text/css">
	.st0{fill:#FFFFFF;}
	.st1{fill:#FAFAFA;}
	.st2{font-family:'ArialMT';}
	.st3{font-size:69.2731px;}
</style>
<g id="XMLID_60_">
	<g id="XMLID_261_">
		<path id="XMLID_259_" class="st0" d="M33,4.6H2.7l86.7,148.3l15.2-26L33,4.6z"/>
		<path id="XMLID_258_" class="st0" d="M116.2,89L66.8,4.6H36.6L106.4,124l9.9-16.9c1.6-2.6,2.6-5.7,2.6-9.1
			C118.8,94.7,117.8,91.6,116.2,89z"/>
		<path id="XMLID_257_" class="st0" d="M55.6,101.1L3.5,190h30.3l36.9-63L55.6,101.1z"/>
		<path id="XMLID_256_" class="st0" d="M72.5,130l-35,60h30.3l20-34.1L72.5,130z"/>
	</g>
</g>
<path id="XMLID_116_" class="st1" d="M221.3,51c0,10.5-3.1,19-9.5,25.2c-7.2,7.4-16.6,11.2-28.1,11.2c-11,0-20.4-3.8-28.1-11.4
	c-7.7-7.5-11.6-17-11.6-28s3.9-20.5,11.6-28s17.1-11.4,28.1-11.4c5.5,0,10.7,1.1,15.7,3.2c5,2.1,9,4.9,11.9,8.5l-6.7,6.6
	c-5.1-6-12-9-20.9-9c-8,0-15,2.8-20.9,8.4S154,39.1,154,48.1s2.9,16.2,8.8,21.8s12.8,8.4,20.9,8.4c8.6,0,15.6-2.8,21.4-8.5
	c3.7-3.7,5.9-8.8,6.4-15.3h-27.8v-9.1h37.1C221.1,47.4,221.3,49.2,221.3,51L221.3,51z"/>
<path id="XMLID_118_" class="st1" d="M230.9,85.7V10.3h23.4c11.7,0,21.2,3.5,28.2,10.5c7,7,10.5,16.1,10.5,27.3s-3.5,20.2-10.5,27.3
	c-7,7-16.4,10.5-28.2,10.5L230.9,85.7L230.9,85.7z M240.8,76.5h13.6c8.8,0,15.8-2.5,21-7.5c5.2-5,7.7-11.9,7.7-21
	c0-9-2.5-15.9-7.7-20.9c-5.2-5-12.2-7.5-21-7.5h-13.6C240.8,19.5,240.8,76.5,240.8,76.5z"/>
<path id="XMLID_121_" class="st1" d="M376.6,51c0,10.5-3.1,19-9.5,25.2c-7.2,7.4-16.6,11.2-28.1,11.2c-11,0-20.4-3.8-28.1-11.4
	c-7.7-7.5-11.6-17-11.6-28s3.9-20.5,11.6-28S327.9,8.6,339,8.6c5.5,0,10.7,1.1,15.7,3.2c5,2.1,9,4.9,11.9,8.5l-6.7,6.6
	c-5.1-6-12-9-20.9-9c-8,0-15,2.8-20.9,8.4s-8.8,12.8-8.8,21.8s2.9,16.2,8.8,21.8s12.8,8.4,20.9,8.4c8.6,0,15.6-2.8,21.4-8.5
	c3.7-3.7,5.9-8.8,6.4-15.3H339v-9.1h37.1C376.4,47.4,376.6,49.2,376.6,51L376.6,51z"/>
<path id="XMLID_123_" class="st1" d="M412,85.7V10.3h23.4c11.7,0,21.2,3.5,28.2,10.5s10.5,16.1,10.5,27.3s-3.5,20.2-10.5,27.3
	c-7,7-16.4,10.5-28.2,10.5L412,85.7L412,85.7z M421.9,76.5h13.6c8.8,0,15.8-2.5,21-7.5s7.7-11.9,7.7-21c0-9-2.5-15.9-7.7-20.9
	s-12.2-7.5-21-7.5h-13.6C421.9,19.5,421.9,76.5,421.9,76.5z"/>
<path id="XMLID_126_" class="st1" d="M506.3,87.5c-7.9,0-14.4-2.6-19.2-7.8c-5-5.2-7.4-11.8-7.4-19.8c0-7.5,2.4-14,7.2-19.4
	c4.8-5.4,10.9-8.1,18.5-8.1c7.7,0,14,2.5,18.7,7.5s7,11.7,7,20l-0.1,1.8h-41.3c0.3,5.2,2.1,9.3,5.3,12.3c3.2,3,7,4.5,11.3,4.5
	c7,0,11.8-3,14.4-8.9l8.8,3.6c-1.8,4-4.5,7.3-8.4,10C516.9,86.1,512.1,87.5,506.3,87.5L506.3,87.5z M520.5,53.7
	c-0.2-3-1.6-5.8-4.1-8.5c-2.5-2.7-6.3-4-11.2-4c-3.6,0-6.7,1.2-9.5,3.4c-2.6,2.2-4.5,5.3-5.5,9.1L520.5,53.7L520.5,53.7z"/>
<path id="XMLID_129_" class="st1" d="M551.6,85.7l-21.2-51.6h10.7l15.4,40.1h0.2l15.6-40.1h10.4l-21.4,51.6H551.6z"/>
<path id="XMLID_131_" class="st1" d="M598.3,85.7h-9.9V10.3h44.6v9.3h-34.9v24.8h31.4v9.1h-31.4L598.3,85.7L598.3,85.7z"/>
<path id="XMLID_133_" class="st1" d="M662.9,87.5c-7.9,0-14.4-2.6-19.2-7.8c-5-5.2-7.4-11.8-7.4-19.8c0-7.5,2.4-14,7.2-19.4
	s10.9-8.1,18.5-8.1c7.7,0,14,2.5,18.7,7.5s7,11.7,7,20l-0.1,1.8h-41.3c0.3,5.2,2.1,9.3,5.3,12.3c3.2,3,7,4.5,11.3,4.5
	c7,0,11.8-3,14.4-8.9l8.8,3.6c-1.8,4-4.5,7.3-8.4,10C673.3,86.1,668.6,87.5,662.9,87.5L662.9,87.5z M677,53.7
	c-0.2-3-1.6-5.8-4.1-8.5c-2.5-2.7-6.3-4-11.2-4c-3.6,0-6.7,1.2-9.5,3.4c-2.6,2.2-4.5,5.3-5.5,9.1L677,53.7L677,53.7z"/>
<path id="XMLID_136_" class="st1" d="M713.5,87.5c-5.9,0-10.6-1.4-14.5-4.2c-3.8-2.8-6.6-6.4-8.4-10.5l8.8-3.6
	c2.7,6.5,7.5,9.7,14.2,9.7c3,0,5.6-0.7,7.5-2c2-1.3,2.9-3.1,2.9-5.3c0-3.4-2.3-5.7-7.1-6.8l-10.5-2.5c-3.3-0.9-6.5-2.4-9.5-4.8
	c-3-2.3-4.5-5.5-4.5-9.5c0-4.5,2.1-8.3,6.2-11.1c4.1-2.9,9-4.2,14.6-4.2c4.6,0,8.8,1.1,12.4,3.1c3.6,2.1,6.3,5,7.8,8.9l-8.6,3.5
	c-2-4.5-6-6.8-11.9-6.8c-2.9,0-5.4,0.6-7.3,1.8c-2,1.2-3,2.8-3,4.8c0,3,2.3,4.9,6.9,6l10.4,2.4c4.9,1.2,8.6,3.1,10.9,5.8
	c2.3,2.7,3.5,5.9,3.5,9.3c0,4.6-2,8.5-5.8,11.6C724.5,85.9,719.5,87.5,713.5,87.5L713.5,87.5z"/>
<path id="XMLID_138_" class="st1" d="M763.7,86.6c-5.5,0-9.7-1.4-12.6-4.3c-2.9-2.9-4.3-6.9-4.3-12.2V43h-9.2v-8.9h9.2V18.3h9.9
	v15.8h12.8V43h-12.8v26.3c0,5.6,2.3,8.5,7,8.5c1.8,0,3.3-0.3,4.5-0.9l3.4,8.3C769.5,86.1,766.8,86.6,763.7,86.6L763.7,86.6z"/>
<text transform="matrix(1.0135 0 0 1 147.5327 162.0547)" class="st1 st2 st3">Cagayan de Oro 2016</text>
</svg>
