<?xml version="1.0" encoding="utf-8"?>
<!-- Generator: Adobe Illustrator 19.2.1, SVG Export Plug-In . SVG Version: 6.00 Build 0)  -->
<svg version="1.1" id="Layer_4" xmlns="http://www.w3.org/2000/svg" xmlns:xlink="http://www.w3.org/1999/xlink" x="0px" y="0px"
	 viewBox="0 0 839 200" style="enable-background:new 0 0 839 200;" xml:space="preserve">
<style type="text/css">
	.st0{fill:none;}
	.st1{fill:#FFC107;}
	.st2{fill:#0F9D58;}
	.st3{opacity:0.2;fill:#BF360C;enable-background:new    ;}
	.st4{opacity:0.2;fill:#263238;enable-background:new    ;}
	.st5{opacity:0.2;fill:#FFFFFF;enable-background:new    ;}
	.st6{fill:url(#XMLID_2_);}
	.st7{fill:url(#XMLID_3_);}
	.st8{fill:#4285F4;}
	.st9{fill:#DB4437;}
	.st10{opacity:0.2;fill:#1A237E;enable-background:new    ;}
	.st11{opacity:0.2;fill:#3E2723;enable-background:new    ;}
	.st12{fill:url(#XMLID_4_);}
	.st13{fill:#FAFAFA;}
	.st14{font-family:'ProductSans-Regular';}
	.st15{font-size:71.8886px;}
</style>
<g id="XMLID_60_">
	<g id="XMLID_61_">
		<g id="XMLID_62_">
			<path id="XMLID_106_" class="st0" d="M122.5,90.6L70.1,0H0l57.8,100L0,200h70.1l52.4-90.6C125.8,103.6,125.8,96.4,122.5,90.6z"/>
			<path id="XMLID_105_" class="st1" d="M92.4,159.8l-16.6-28.7L35.9,200h34.2l22.8-39.4L92.4,159.8z"/>
			<path id="XMLID_104_" class="st0" d="M122.5,90.6L70.1,0H0l57.8,100L0,200h70.1l52.4-90.6C125.8,103.6,125.8,96.4,122.5,90.6z"/>
			<path id="XMLID_103_" class="st2" d="M57.8,100l18,31.1L35.9,200H0L57.8,100z"/>
			<path id="XMLID_102_" class="st0" d="M122.5,90.6L70.1,0H0l57.8,100L0,200h70.1l52.4-90.6C125.8,103.6,125.8,96.4,122.5,90.6z"/>
			<path id="XMLID_101_" class="st3" d="M70.1,198.4H36.8l-0.9,1.6h34.2l22.8-39.4l-0.5-0.8L70.1,198.4z"/>
			<path id="XMLID_100_" class="st0" d="M122.5,90.6L70.1,0H0l57.8,100L0,200h70.1l52.4-90.6C125.8,103.6,125.8,96.4,122.5,90.6z"/>
			<path id="XMLID_99_" class="st4" d="M0.9,198.4L0,200h35.9l0.9-1.6H0.9z"/>
			<path id="XMLID_98_" class="st0" d="M122.5,90.6L70.1,0H0l57.8,100L0,200h70.1l52.4-90.6C125.8,103.6,125.8,96.4,122.5,90.6z"/>
			<path id="XMLID_96_" class="st5" d="M0,200h0.9l57.4-99.2l-0.5-0.8L0,200z"/>
			<path id="XMLID_94_" class="st0" d="M122.5,90.6L70.1,0H0l57.8,100L0,200h70.1l52.4-90.6C125.8,103.6,125.8,96.4,122.5,90.6z"/>
			
				<radialGradient id="XMLID_2_" cx="92.6197" cy="-1707.5007" r="69.1617" gradientTransform="matrix(1 0 0 1 0 1867.46)" gradientUnits="userSpaceOnUse">
				<stop  offset="0" style="stop-color:#BF360C;stop-opacity:0.2"/>
				<stop  offset="1" style="stop-color:#BF360C;stop-opacity:2.000000e-02"/>
			</radialGradient>
			<path id="XMLID_92_" class="st6" d="M92.9,160.6l-17.1-29.5l-4.2,7.2L92.9,160.6z"/>
			<path id="XMLID_90_" class="st0" d="M122.5,90.6L70.1,0H0l57.8,100L0,200h70.1l52.4-90.6C125.8,103.6,125.8,96.4,122.5,90.6z"/>
			
				<radialGradient id="XMLID_3_" cx="92.4233" cy="-1707.0632" r="69.7231" gradientTransform="matrix(1 0 0 1 0 1867.46)" gradientUnits="userSpaceOnUse">
				<stop  offset="0" style="stop-color:#263238;stop-opacity:0.2"/>
				<stop  offset="1" style="stop-color:#263238;stop-opacity:2.000000e-02"/>
			</radialGradient>
			<path id="XMLID_89_" class="st7" d="M71.6,138.3l4.2-7.2l-18-31.1l-8.5,14.8L71.6,138.3z"/>
			<path id="XMLID_88_" class="st0" d="M122.5,90.6L70.1,0H0l57.8,100L0,200h70.1l52.4-90.6C125.8,103.6,125.8,96.4,122.5,90.6z"/>
			<g id="XMLID_85_">
				<g id="XMLID_86_">
					<path id="XMLID_87_" class="st8" d="M35.9,0H0l92.9,160.6l17.9-31.1L35.9,0z"/>
				</g>
			</g>
			<path id="XMLID_84_" class="st0" d="M122.5,90.6L70.1,0H0l57.8,100L0,200h70.1l52.4-90.6C125.8,103.6,125.8,96.4,122.5,90.6z"/>
			<path id="XMLID_83_" class="st9" d="M122.5,109.4c3.4-5.8,3.4-13,0-18.8L70.1,0H35.9l74.9,129.5L122.5,109.4z"/>
			<path id="XMLID_82_" class="st0" d="M122.5,90.6L70.1,0H0l57.8,100L0,200h70.1l52.4-90.6C125.8,103.6,125.8,96.4,122.5,90.6z"/>
			<path id="XMLID_71_" class="st10" d="M110.8,129.5l-0.4-0.8L92.9,159L0.9,0H0l92.9,160.6L110.8,129.5z"/>
			<path id="XMLID_69_" class="st0" d="M122.5,90.6L70.1,0H0l57.8,100L0,200h70.1l52.4-90.6C125.8,103.6,125.8,96.4,122.5,90.6z"/>
			<path id="XMLID_67_" class="st5" d="M70.1,1.6l52.4,90.6c1.5,2.7,2.3,5.6,2.5,8.6c0.1-3.5-0.7-7-2.5-10.2L70.1,0H0l0.9,1.6H70.1z
				"/>
			<path id="XMLID_66_" class="st0" d="M122.5,90.6L70.1,0H0l57.8,100L0,200h70.1l52.4-90.6C125.8,103.6,125.8,96.4,122.5,90.6z"/>
			<path id="XMLID_65_" class="st11" d="M110.8,129.5l11.6-20.1c1.8-3.1,2.6-6.7,2.5-10.2c-0.1,3-0.9,5.9-2.5,8.6l-12.1,20.9
				L110.8,129.5z"/>
			<path id="XMLID_64_" class="st0" d="M122.5,90.6L70.1,0H0l57.8,100L0,200h70.1l52.4-90.6C125.8,103.6,125.8,96.4,122.5,90.6z"/>
			
				<radialGradient id="XMLID_4_" cx="-1.5625" cy="-1865.8975" r="209.9223" gradientTransform="matrix(1 0 0 1 0 1867.46)" gradientUnits="userSpaceOnUse">
				<stop  offset="0" style="stop-color:#FFFFFF;stop-opacity:0.1"/>
				<stop  offset="1" style="stop-color:#FFFFFF;stop-opacity:0"/>
			</radialGradient>
			<path id="XMLID_63_" class="st12" d="M122.5,90.6L70.1,0H0l57.8,100L0,200h70.1l52.4-90.6C125.8,103.6,125.8,96.4,122.5,90.6z"/>
		</g>
	</g>
</g>
<path id="XMLID_116_" class="st13" d="M228.5,52.8c0,10.9-3.2,19.7-9.7,26.1c-7.4,7.7-17,11.6-28.8,11.6c-11.3,0-20.9-3.9-28.8-11.8
	c-7.9-7.8-11.9-17.6-11.9-29.1s4-21.3,11.9-29.1S178.7,8.7,190,8.7c5.6,0,11,1.1,16.1,3.3c5.1,2.2,9.2,5.1,12.2,8.8l-6.9,6.9
	c-5.2-6.2-12.3-9.3-21.4-9.3c-8.2,0-15.4,2.9-21.4,8.7s-9,13.3-9,22.6s3,16.8,9,22.6c6,5.8,13.1,8.7,21.4,8.7c8.8,0,16-2.9,21.9-8.8
	c3.8-3.8,6-9.1,6.6-15.9H190v-9.4h38C228.3,49,228.5,50.9,228.5,52.8L228.5,52.8z"/>
<path id="XMLID_118_" class="st13" d="M238.4,88.8V10.5h24c12,0,21.7,3.6,28.9,10.9c7.2,7.3,10.8,16.7,10.8,28.3s-3.6,21-10.8,28.3
	c-7.2,7.3-16.8,10.9-28.9,10.9L238.4,88.8L238.4,88.8z M248.5,79.2h13.9c9,0,16.2-2.6,21.5-7.8c5.3-5.2,7.9-12.4,7.9-21.8
	c0-9.3-2.6-16.5-7.9-21.7s-12.5-7.8-21.5-7.8h-13.9C248.5,20.1,248.5,79.2,248.5,79.2z"/>
<path id="XMLID_121_" class="st13" d="M387.5,52.8c0,10.9-3.2,19.7-9.7,26.1c-7.4,7.7-17,11.6-28.8,11.6c-11.3,0-20.9-3.9-28.8-11.8
	c-7.9-7.8-11.9-17.6-11.9-29.1s4-21.3,11.9-29.1S337.7,8.7,349,8.7c5.6,0,11,1.1,16.1,3.3s9.2,5.1,12.2,8.8l-6.9,6.9
	c-5.2-6.2-12.3-9.3-21.4-9.3c-8.2,0-15.4,2.9-21.4,8.7s-9,13.3-9,22.6s3,16.8,9,22.6c6,5.8,13.1,8.7,21.4,8.7c8.8,0,16-2.9,21.9-8.8
	c3.8-3.8,6-9.1,6.6-15.9H349v-9.4h38C387.3,49,387.5,50.9,387.5,52.8L387.5,52.8z"/>
<path id="XMLID_123_" class="st13" d="M423.8,88.8V10.5h24c12,0,21.7,3.6,28.9,10.9s10.8,16.7,10.8,28.3s-3.6,21-10.8,28.3
	s-16.8,10.9-28.9,10.9L423.8,88.8L423.8,88.8z M433.9,79.2h13.9c9,0,16.2-2.6,21.5-7.8c5.3-5.2,7.9-12.4,7.9-21.8
	c0-9.3-2.6-16.5-7.9-21.7c-5.3-5.2-12.5-7.8-21.5-7.8h-13.9C433.9,20.1,433.9,79.2,433.9,79.2z"/>
<path id="XMLID_126_" class="st13" d="M520.4,90.6c-8.1,0-14.7-2.7-19.7-8.1c-5.1-5.4-7.6-12.2-7.6-20.5c0-7.8,2.5-14.5,7.4-20.1
	s11.2-8.4,18.9-8.4c7.9,0,14.3,2.6,19.1,7.8s7.2,12.1,7.2,20.8l-0.1,1.9h-42.3c0.3,5.4,2.1,9.7,5.4,12.8c3.3,3.1,7.2,4.7,11.6,4.7
	c7.2,0,12.1-3.1,14.7-9.2l9,3.7c-1.8,4.2-4.6,7.6-8.6,10.4C531.2,89.2,526.3,90.6,520.4,90.6L520.4,90.6z M534.9,55.6
	c-0.2-3.1-1.6-6-4.2-8.8c-2.6-2.8-6.4-4.2-11.5-4.2c-3.7,0-6.9,1.2-9.7,3.5c-2.7,2.3-4.6,5.5-5.6,9.4L534.9,55.6L534.9,55.6z"/>
<path id="XMLID_129_" class="st13" d="M566.7,88.8L545,35.2h11l15.8,41.6h0.2l16-41.6h10.7l-21.9,53.6H566.7z"/>
<path id="XMLID_131_" class="st13" d="M614.6,88.8h-10.1V10.5h45.7v9.6h-35.7v25.7h32.2v9.4h-32.2L614.6,88.8L614.6,88.8z"/>
<path id="XMLID_133_" class="st13" d="M680.7,90.6c-8.1,0-14.7-2.7-19.7-8.1c-5.1-5.4-7.6-12.2-7.6-20.5c0-7.8,2.5-14.5,7.4-20.1
	s11.2-8.4,18.9-8.4c7.9,0,14.3,2.6,19.1,7.8s7.2,12.1,7.2,20.8l-0.1,1.9h-42.3c0.3,5.4,2.1,9.7,5.4,12.8c3.3,3.1,7.2,4.7,11.6,4.7
	c7.2,0,12.1-3.1,14.7-9.2l9,3.7c-1.8,4.2-4.6,7.6-8.6,10.4C691.4,89.2,686.5,90.6,680.7,90.6L680.7,90.6z M695.1,55.6
	c-0.2-3.1-1.6-6-4.2-8.8c-2.6-2.8-6.4-4.2-11.5-4.2c-3.7,0-6.9,1.2-9.7,3.5c-2.7,2.3-4.6,5.5-5.6,9.4L695.1,55.6L695.1,55.6z"/>
<path id="XMLID_136_" class="st13" d="M732.5,90.6c-6,0-10.9-1.5-14.8-4.4c-3.9-2.9-6.8-6.6-8.6-10.9l9-3.7
	c2.8,6.7,7.7,10.1,14.5,10.1c3.1,0,5.7-0.7,7.7-2.1s3-3.2,3-5.5c0-3.5-2.4-5.9-7.3-7.1l-10.8-2.6c-3.4-0.9-6.7-2.5-9.7-5
	c-3.1-2.4-4.6-5.7-4.6-9.9c0-4.7,2.1-8.6,6.3-11.5c4.2-3,9.2-4.4,14.9-4.4c4.7,0,9,1.1,12.7,3.2c3.7,2.2,6.4,5.2,8,9.2l-8.8,3.6
	c-2-4.7-6.1-7.1-12.2-7.1c-3,0-5.5,0.6-7.5,1.9c-2,1.2-3.1,2.9-3.1,5c0,3.1,2.4,5.1,7.1,6.2l10.6,2.5c5,1.2,8.8,3.2,11.2,6
	c2.4,2.8,3.6,6.1,3.6,9.6c0,4.8-2,8.8-5.9,12C743.8,89,738.7,90.6,732.5,90.6L732.5,90.6z"/>
<path id="XMLID_138_" class="st13" d="M783.9,89.7c-5.6,0-9.9-1.5-12.9-4.5s-4.4-7.2-4.4-12.7V44.4h-9.4v-9.2h9.4V18.8h10.1v16.4
	h13.1v9.2h-13.1v27.3c0,5.8,2.4,8.8,7.2,8.8c1.8,0,3.4-0.3,4.6-0.9l3.5,8.6C789.8,89.2,787.1,89.7,783.9,89.7L783.9,89.7z"/>
<text transform="matrix(1 0 0 1 153 168)" class="st13 st14 st15">Cagayan de Oro 2016</text>
</svg>
